<?xml version="1.0" encoding="UTF-8" standalone="no"?>
<!-- Generator: Adobe Illustrator 16.0.0, SVG Export Plug-In . SVG Version: 6.00 Build 0)  -->

<svg
   xmlns:dc="http://purl.org/dc/elements/1.1/"
   xmlns:cc="http://creativecommons.org/ns#"
   xmlns:rdf="http://www.w3.org/1999/02/22-rdf-syntax-ns#"
   xmlns:svg="http://www.w3.org/2000/svg"
   xmlns="http://www.w3.org/2000/svg"
   xmlns:sodipodi="http://sodipodi.sourceforge.net/DTD/sodipodi-0.dtd"
   xmlns:inkscape="http://www.inkscape.org/namespaces/inkscape"
   version="1.1"
   id="Capa_1"
   x="0px"
   y="0px"
   width="352.62px"
   height="352.62px"
   viewBox="0 0 352.62 352.62"
   style="enable-background:new 0 0 352.62 352.62;"
   xml:space="preserve"
   sodipodi:docname="check.svg"
   inkscape:version="0.92.1 r15371"><metadata
     id="metadata3702"><rdf:RDF><cc:Work
         rdf:about=""><dc:format>image/svg+xml</dc:format><dc:type
           rdf:resource="http://purl.org/dc/dcmitype/StillImage" /></cc:Work></rdf:RDF></metadata><defs
     id="defs3700" /><sodipodi:namedview
     pagecolor="#ffffff"
     bordercolor="#666666"
     borderopacity="1"
     objecttolerance="10"
     gridtolerance="10"
     guidetolerance="10"
     inkscape:pageopacity="0"
     inkscape:pageshadow="2"
     inkscape:window-width="1920"
     inkscape:window-height="1137"
     id="namedview3698"
     showgrid="false"
     inkscape:zoom="2.6771029"
     inkscape:cx="197.15252"
     inkscape:cy="182.97141"
     inkscape:window-x="1912"
     inkscape:window-y="-8"
     inkscape:window-maximized="1"
     inkscape:current-layer="g3695" /><g
     id="g3695"><path
       d="m 337.222,22.952 c -15.912,-8.568 -33.66,7.956 -44.064,17.748 -23.867,23.256 -44.063,50.184 -66.708,74.664 -25.092,26.928 -48.348,53.856 -74.052,80.173 -14.688,14.688 -30.6,30.6 -40.392,48.96 C 89.974,223.076 71.002,199.82 46.522,180.849 28.774,167.385 -0.602,157.593 0.01,190.029 c 1.224,42.229 38.556,87.517 66.096,116.28 11.628,12.24 26.928,25.092 44.676,25.704 21.42,1.224 43.452,-24.48 56.304,-38.556 22.645,-24.48 41.005,-52.021 61.812,-77.112 26.928,-33.048 54.468,-65.485 80.784,-99.145 16.524,-20.808 68.544,-72.217 27.54,-94.248 z"
       id="path3693"
       inkscape:connector-curvature="0"
       sodipodi:nodetypes="ccccccccccccc"
       style="fill:#ffffff" /></g></svg>