<svg id="icons" enable-background="new 0 0 64 64" height="512" viewBox="0 0 64 64" width="512" xmlns="http://www.w3.org/2000/svg"><path d="m48.996 62v-3.001h-35.995v-23.999-28h-3.007c-.542.002-.983.44-.994.98v2.02 52.02c.011.539.453.98.996.98h36.004 1.996c.55 0 1-.451 1-1z" fill="#e6e9ed"/><path d="m9 7.98v30.022h3v-31.002h-2.006c-.542.002-.983.44-.994.98z" fill="#5d9cec"/><path d="m51.996 59v-3.001h-35.995v-23.999-28h-3.007c-.542.002-.983.44-.994.98v2.02 52.02c.011.539.453.98.996.98h36.004 1.996c.55 0 1-.451 1-1z" fill="#ccd1d9"/><path d="m30 32h-6.01-8.99v24c0 .55.45 1 1 1h36 2c.55 0 1-.45 1-1v-24h-1z" fill="#e6e9ed"/><path d="m12 4.98v30.022h3v-31.002h-2.006c-.542.002-.983.44-.994.98z" fill="#4a89dc"/><path d="m54 1h-38c-.55 0-1 .45-1 1v2 28h8.99l8-12 3.01 4.5 7-10.5 12 18h1v-30c0-.55-.45-1-1-1zm-29.5 13c-1.381 0-2.5-1.12-2.5-2.5s1.119-2.5 2.5-2.5c1.379 0 2.5 1.12 2.5 2.5s-1.121 2.5-2.5 2.5z" fill="#5d9cec" opacity=".97"/><g fill="#ccd1d9"><path d="m49.996 40.002h-29.998c-.553 0-1-.447-1-1s.447-1 1-1h29.998c.553 0 1 .447 1 1s-.447 1-1 1z"/><path d="m49.996 43.002h-29.998c-.553 0-1-.447-1-1s.447-1 1-1h29.998c.553 0 1 .447 1 1s-.447 1-1 1z"/><path d="m44.998 46h-20.002c-.553 0-1-.447-1-1s.447-1 1-1h20.002c.553 0 1 .447 1 1s-.447 1-1 1z"/><path d="m31.026 51c-.553 0-1.005-.447-1.005-1s.442-1 .994-1h.011c.552 0 1 .447 1 1s-.448 1-1 1z"/><path d="m35.026 51c-.553 0-1.005-.447-1.005-1s.442-1 .994-1h.011c.552 0 1 .447 1 1s-.448 1-1 1z"/><path d="m39.026 51c-.553 0-1.005-.447-1.005-1s.442-1 .994-1h.011c.552 0 1 .447 1 1s-.448 1-1 1z"/></g><path d="m32.824 20.448c-.154-.231-.39-.377-.643-.427-.064-.012-.127-.001-.191 0-.064-.001-.128-.012-.191 0-.253.049-.487.195-.641.427l-7.701 11.552h7.21l3.778-5.668c.165.109.354.173.55.173.19 0 .384-.054.554-.168.46-.307.584-.927.277-1.387z" fill="#545c66"/><path d="m41.808 14.021c-.254.049-.489.194-.644.427l-11.701 17.552h25.07l-11.701-17.552c-.155-.232-.391-.378-.645-.427-.063-.012-.126 0-.189 0-.064 0-.127-.011-.19 0z" fill="#656d78"/><circle cx="24.5" cy="11.5" fill="#ffce54" r="3"/></svg>